<?xml version="1.0" encoding="UTF-8" standalone="no"?>
<svg
   xmlns:dc="http://purl.org/dc/elements/1.1/"
   xmlns:cc="http://creativecommons.org/ns#"
   xmlns:rdf="http://www.w3.org/1999/02/22-rdf-syntax-ns#"
   xmlns:svg="http://www.w3.org/2000/svg"
   xmlns="http://www.w3.org/2000/svg"
   xmlns:sodipodi="http://sodipodi.sourceforge.net/DTD/sodipodi-0.dtd"
   xmlns:inkscape="http://www.inkscape.org/namespaces/inkscape"
   id="svg36"
   xml:space="preserve"
   enable-background="new 0 0 100 100"
   viewBox="0 0 100 100"
   y="0px"
   x="0px"
   version="1.1"
   sodipodi:docname="fp-disabled.svg"
   width="100"
   height="100"
   inkscape:version="0.92.2 (5c3e80d, 2017-08-06)"><sodipodi:namedview
     pagecolor="#ffffff"
     bordercolor="#666666"
     borderopacity="1"
     objecttolerance="10"
     gridtolerance="10"
     guidetolerance="10"
     inkscape:pageopacity="0"
     inkscape:pageshadow="2"
     inkscape:window-width="1918"
     inkscape:window-height="1051"
     id="namedview22"
     showgrid="false"
     inkscape:zoom="1.888"
     inkscape:cx="-55.137712"
     inkscape:cy="62.5"
     inkscape:window-x="0"
     inkscape:window-y="26"
     inkscape:window-maximized="0"
     inkscape:current-layer="svg36" /><metadata
     id="metadata42"><rdf:RDF><cc:Work
         rdf:about=""><dc:format>image/svg+xml</dc:format><dc:type
           rdf:resource="http://purl.org/dc/dcmitype/StillImage" /><dc:title></dc:title></cc:Work></rdf:RDF></metadata><defs
     id="defs40" /><path
     style="fill:#d45500;fill-opacity:1"
     d="m 17.5,93 c 2.740652,-0.01512 2.595319,-3.071105 2.5,-5.031022 0.0257,-17.168713 -0.0517,-34.339072 0.03923,-51.506744 C 20.512401,22.381049 32.199189,9.7998424 46.192751,8.2421856 59.692593,6.2593319 73.672909,14.872022 78.171921,27.712448 80.885993,34.836616 79.758704,42.527862 80,49.964833 c 0.03336,13.680697 -0.06671,27.367926 0.05,41.044542 0.698199,3.46173 5.93167,1.809942 4.95,-1.429747 -0.02968,-17.792466 0.05984,-35.586824 -0.04563,-53.378087 C 84.420395,20.38377 71.797271,6.0921789 56.187781,3.54762 41.426869,0.6510969 25.488651,8.6130613 18.834551,22.07939 15.29388,28.494098 14.800253,35.895036 15,43.062045 c 0.03336,15.981626 -0.0667,31.969784 0.05,47.94733 0.204803,1.143531 1.291431,2.017577 2.45,1.990625 z"
     id="path2"
     inkscape:connector-curvature="0" /><path
     style="fill:#d45500;fill-opacity:1"
     d="m 51.3,38 c 0.07526,1.764738 -2.844326,1.616211 -2.593505,-0.129783 C 48.859566,36.257402 51.301871,36.37178 51.3,38 Z"
     id="circle4"
     inkscape:connector-curvature="0" /><path
     style="fill:#d45500;fill-opacity:1"
     d="M 50,11.8 C 37.398023,11.542858 25.684611,21.619208 24.003635,34.100565 22.870432,36.048257 24.185688,41.793134 26.3,38.1 26.048468,26.273425 35.893612,15.394359 47.673901,14.423364 c 11.303011,-1.406159 22.757706,6.572883 25.380631,17.650016 1.090711,1.967639 -0.402043,9.013387 3.24078,6.425057 C 76.968178,25.754265 66.586727,13.768508 53.999518,12.101163 52.676493,11.89994 51.338203,11.799922 50,11.8 Z"
     id="path6"
     inkscape:connector-curvature="0" /><path
     style="fill:#d45500;fill-opacity:1"
     d="m 50,21.8 c -4.282163,0.149412 -10.444444,1.845981 -11.78125,6.178125 2.826879,2.030635 5.52911,-3.84776 9.1125,-3.31875 C 55.494344,22.765811 64.071447,29.831508 63.8,38.2 65.959631,41.954277 67.332153,35.945206 65.846762,34.053821 64.108064,26.979607 57.299539,21.674083 50,21.8 Z"
     id="path8"
     inkscape:connector-curvature="0" /><path
     style="fill:#d45500;fill-opacity:1"
     d="M 50,84.3 C 58.830836,84.552947 66.944097,76.359856 66.195312,67.501562 62.3315,64.927559 64.230709,72.781387 62.030078,74.568359 58.402022,81.779664 48.037196,84.159685 41.724695,79.0521 38.099662,76.392424 36.262295,71.904493 36.195312,67.501562 32.332408,64.849506 33.894642,72.50872 35.023438,74.34375 37.470103,80.265053 43.571311,84.383901 50,84.3 Z"
     id="path10"
     inkscape:connector-curvature="0" /><path
     style="fill:#d45500;fill-opacity:1"
     d="M 50,79.3 C 56.164643,79.483934 61.876283,73.6928 61.195312,67.501562 57.362395,64.806086 59.255129,73.035865 56.1375,74.2 51.861787,78.915837 43.099084,76.810575 41.492212,70.631665 41.982062,68.696799 39.811303,64.732032 38.5,68 38.688641,74.018404 43.878036,79.396304 50,79.3 Z"
     id="path12"
     inkscape:connector-curvature="0" /><path
     style="fill:#d45500;fill-opacity:1"
     d="m 53.8,38 c 2.221506,3.822629 3.730552,-2.546937 1.168042,-3.974414 -2.857282,-3.889653 -9.682101,-2.584647 -10.886572,2.093335 -1.82905,3.414077 3.215663,4.204675 2.616967,0.401392 C 48.177795,32.7795 54.000967,33.882868 53.8,38 Z"
     id="path14"
     inkscape:connector-curvature="0" /><path
     style="fill:#d45500;fill-opacity:1"
     d="m 50,71.8 c -3.993455,1.201116 -3.479118,-8.087608 -6.4,-3.8 -0.315559,3.542965 4.409434,7.965736 7.495313,5.498438 C 51.463939,72.735277 50.872739,71.742401 50,71.8 Z"
     id="path16"
     inkscape:connector-curvature="0" /><path
     style="fill:#d45500;fill-opacity:1"
     d="M 66.8,84.8 C 59.0134,92.953409 45.289286,94.130384 36.241789,87.396647 29.822212,82.951932 26.115229,75.239231 26.095312,67.501562 22.215412,64.9413 23.849341,72.509266 24.429544,74.564407 27.31017,86.58362 39.534781,95.392289 51.857214,94.229138 58.208703,93.759131 64.530897,90.960178 68.78125,86.178125 69.321027,85.014307 67.701274,83.784654 66.8,84.8 Z"
     id="path18"
     inkscape:connector-curvature="0" /><path
     style="fill:#d45500;fill-opacity:1"
     d="M 70.7,83.2 C 73.87168,80.949625 74.857466,76.267959 75.798047,72.568628 76.886094,70.61517 76.037758,64.195517 73.6,68 73.699016,72.883317 71.935495,77.622981 69.307812,81.6625 69.139829,82.514029 69.899593,83.17412 70.7,83.2 Z"
     id="path20"
     inkscape:connector-curvature="0" /><path
     style="fill:#d45500;fill-opacity:1"
     d="M 59.3,43.7 C 57.345307,41.749052 55.333567,44.050359 54.010297,45.489703 52.673531,46.826469 51.336766,48.163234 50,49.5 47.787961,47.453087 45.870668,45.026652 43.457813,43.2375 40.319918,42.010658 38.834875,46.741614 41.613501,48.113501 43.242334,49.742334 44.871167,51.371167 46.5,53 c -2.046913,2.212039 -4.473348,4.129332 -6.2625,6.542187 -1.226842,3.137895 3.504114,4.622938 4.876001,1.844312 C 46.742334,59.757666 48.371167,58.128833 50,56.5 c 2.212039,2.046913 4.129332,4.473348 6.542187,6.2625 3.137895,1.226842 4.622938,-3.504114 1.844312,-4.876001 C 56.757666,56.257666 55.128833,54.628833 53.5,53 55.547522,50.78748 57.974174,48.869665 59.764062,46.45625 60.522692,44.76126 58.870443,43.294186 59.3,43.7 Z"
     id="path22"
     inkscape:connector-curvature="0" /><path
     style="fill:#d45500;fill-opacity:1"
     d="m 51.3,68 c 0.07526,1.764738 -2.844326,1.616211 -2.593505,-0.129783 C 48.859566,66.257402 51.301871,66.37178 51.3,68 Z"
     id="circle24"
     inkscape:connector-curvature="0" /><path
     style="fill:#d45500;fill-opacity:1"
     d="m 53.8,68 c -1.901521,2.6308 2.164817,4.706143 2.4625,1.2 C 57.33384,67.1463 54.284013,65.424979 53.8,68 Z"
     id="path26"
     inkscape:connector-curvature="0" /><path
     style="fill:#d45500;fill-opacity:1"
     d="m 70,66.8 c -2.649634,1.837174 -0.814093,6.762833 -3.150977,9.41442 C 62.862266,85.078684 51.449376,89.436134 42.60625,85.395312 35.553263,82.474904 31.18969,74.992072 31.195313,67.501562 27.378285,64.989489 28.895312,72.287391 29.654492,74.310327 32.552813,84.334438 43.53779,91.042438 53.77991,88.965282 63.769746,87.358223 71.867524,77.6709 71.195312,67.517187 70.988551,67.063086 70.487625,66.794301 70,66.8 Z"
     id="path28"
     inkscape:connector-curvature="0" /><path
     style="fill:#d45500;fill-opacity:1"
     d="m 35,39.3 c 2.310121,-1.245311 1.347711,-5.300262 2.425,-7.55 C 34.627534,28.277096 32.328793,39.076558 35,39.3 Z"
     id="path30"
     inkscape:connector-curvature="0" /><path
     style="fill:#d45500;fill-opacity:1"
     d="M 61.3,38 C 61.538911,31.089618 54.425346,25.303755 47.705664,26.927148 42.439573,27.871997 38.216489,33.135271 38.804688,38.498438 42.637605,41.193914 40.744871,32.964135 43.8625,31.8 48.138213,27.084163 56.900916,29.189425 58.507788,35.368335 58.329234,36.99126 59.856083,41.710396 61.3,38 Z"
     id="path32"
     inkscape:connector-curvature="0" /><path
     style="fill:#d45500;fill-opacity:1"
     d="M 70,39.3 C 72.837011,37.56949 70.456921,32.903288 69.827145,30.216066 66.256997,20.600945 55.138331,14.717594 45.183724,17.248674 35.663496,19.299679 28.253721,28.743201 28.904688,38.498438 c 3.5366,2.550546 2.163898,-4.141467 3.339062,-6.058179 2.702956,-9.512934 13.664402,-15.452009 23.093315,-12.520981 8.129912,2.172345 13.655427,10.316323 13.551998,18.57916 0.160176,0.4586 0.61421,0.81441 1.110937,0.801562 z"
     id="path34"
     inkscape:connector-curvature="0" /></svg>