<?xml version="1.0" encoding="UTF-8" standalone="no"?>
<svg
   xmlns:dc="http://purl.org/dc/elements/1.1/"
   xmlns:cc="http://creativecommons.org/ns#"
   xmlns:rdf="http://www.w3.org/1999/02/22-rdf-syntax-ns#"
   xmlns:svg="http://www.w3.org/2000/svg"
   xmlns="http://www.w3.org/2000/svg"
   id="svg36"
   xml:space="preserve"
   enable-background="new 0 0 100 100"
   viewBox="0 0 100 125"
   y="0px"
   x="0px"
   version="1.1"><metadata
     id="metadata42"><rdf:RDF><cc:Work
         rdf:about=""><dc:format>image/svg+xml</dc:format><dc:type
           rdf:resource="http://purl.org/dc/dcmitype/StillImage" /><dc:title></dc:title></cc:Work></rdf:RDF></metadata><defs
     id="defs40" /><path
     style="fill:#e6e6e6;fill-opacity:0.90196079"
     id="path2"
     d="M17.5,95c1.4,0,2.5-1.1,2.5-2.5V40c0-16.5,13.5-30,30-30s30,13.5,30,30v52.5c0,1.4,1.1,2.5,2.5,2.5s2.5-1.1,2.5-2.5V40  C85,20.7,69.3,5,50,5S15,20.7,15,40v52.5C15,93.9,16.1,95,17.5,95z" /><circle
     style="fill:#e6e6e6;fill-opacity:0.90196079"
     id="circle4"
     r="1.3"
     cy="40"
     cx="50" /><path
     style="fill:#e6e6e6;fill-opacity:0.90196079"
     id="path6"
     d="M50,13.8c-14.5,0-26.3,11.8-26.3,26.3c0,0.7,0.6,1.3,1.3,1.3s1.3-0.6,1.3-1.3c0-13.1,10.7-23.8,23.8-23.8S73.8,26.9,73.8,40  c0,0.7,0.6,1.3,1.3,1.3s1.3-0.6,1.3-1.3C76.3,25.5,64.5,13.8,50,13.8z" /><path
     style="fill:#e6e6e6;fill-opacity:0.90196079"
     id="path8"
     d="M50,23.8c-4.3,0-8.4,1.7-11.5,4.8c-0.5,0.5-0.5,1.3,0,1.8c0.5,0.5,1.3,0.5,1.8,0c2.6-2.6,6.1-4,9.7-4  c7.6,0,13.8,6.2,13.8,13.8c0,0.7,0.6,1.3,1.3,1.3s1.3-0.6,1.3-1.3C66.3,31,59,23.8,50,23.8z" /><path
     style="fill:#e6e6e6;fill-opacity:0.90196079"
     id="path10"
     d="M50,86.3c9,0,16.3-7.3,16.3-16.3c0-0.7-0.6-1.3-1.3-1.3s-1.3,0.6-1.3,1.3c0,7.6-6.2,13.8-13.8,13.8S36.3,77.6,36.3,70  c0-0.7-0.6-1.3-1.3-1.3s-1.3,0.6-1.3,1.3C33.8,79,41,86.3,50,86.3z" /><path
     style="fill:#e6e6e6;fill-opacity:0.90196079"
     id="path12"
     d="M50,81.3c6.2,0,11.3-5,11.3-11.3c0-0.7-0.6-1.3-1.3-1.3s-1.3,0.6-1.3,1.3c0,4.8-3.9,8.8-8.8,8.8s-8.8-3.9-8.8-8.8  c0-0.7-0.6-1.3-1.3-1.3s-1.3,0.6-1.3,1.3C38.8,76.2,43.8,81.3,50,81.3z" /><path
     style="fill:#e6e6e6;fill-opacity:0.90196079"
     id="path14"
     d="M53.8,40c0,0.7,0.6,1.3,1.3,1.3s1.3-0.6,1.3-1.3c0-3.4-2.8-6.3-6.3-6.3s-6.3,2.8-6.3,6.3c0,0.7,0.6,1.3,1.3,1.3  s1.3-0.6,1.3-1.3c0-2.1,1.7-3.8,3.8-3.8S53.8,37.9,53.8,40z" /><path
     style="fill:#e6e6e6;fill-opacity:0.90196079"
     id="path16"
     d="M50,73.8c-2.1,0-3.8-1.7-3.8-3.8c0-0.7-0.6-1.3-1.3-1.3s-1.3,0.6-1.3,1.3c0,3.4,2.8,6.3,6.3,6.3c0.7,0,1.3-0.6,1.3-1.3  S50.7,73.8,50,73.8z" /><path
     style="fill:#e6e6e6;fill-opacity:0.90196079"
     id="path18"
     d="M66.8,86.8c-4.5,4.5-10.5,7-16.8,7c-13.1,0-23.8-10.7-23.8-23.8c0-0.7-0.6-1.3-1.3-1.3s-1.3,0.6-1.3,1.3  c0,14.5,11.8,26.3,26.3,26.3c7,0,13.6-2.7,18.6-7.7c0.5-0.5,0.5-1.3,0-1.8S67.3,86.3,66.8,86.8z" /><path
     style="fill:#e6e6e6;fill-opacity:0.90196079"
     id="path20"
     d="M70.7,85.2c0.4,0,0.8-0.2,1-0.5c0.9-1.4,1.8-2.9,2.4-4.5c0,0,0,0,0,0c1.4-3.2,2.1-6.7,2.1-10.2c0-0.7-0.6-1.3-1.3-1.3  s-1.3,0.6-1.3,1.3c0,3.2-0.6,6.3-1.9,9.2c0,0,0,0,0,0c-0.6,1.4-1.3,2.8-2.2,4c-0.4,0.6-0.2,1.3,0.3,1.7  C70.2,85.1,70.5,85.2,70.7,85.2z" /><path
     style="fill:#e6e6e6;fill-opacity:0.90196079"
     id="path22"
     d="M59.3,45.7c-1-1-2.6-1-3.5,0L50,51.5l-5.7-5.7c-1-1-2.6-1-3.5,0c-1,1-1,2.6,0,3.5l5.7,5.7l-5.7,5.7c-1,1-1,2.6,0,3.5  c1,1,2.6,1,3.5,0l5.7-5.7l5.7,5.7c1,1,2.6,1,3.5,0c1-1,1-2.6,0-3.5L53.5,55l5.7-5.7C60.2,48.3,60.2,46.7,59.3,45.7  C58.3,44.8,60.2,46.7,59.3,45.7z" /><circle
     style="fill:#e6e6e6;fill-opacity:0.90196079"
     id="circle24"
     r="1.3"
     cy="70"
     cx="50" /><path
     style="fill:#e6e6e6;fill-opacity:0.90196079"
     id="path26"
     d="M53.8,70c0,0.5-0.1,1-0.3,1.5c-0.3,0.6,0,1.4,0.7,1.6c0.2,0.1,0.3,0.1,0.5,0.1c0.5,0,0.9-0.3,1.2-0.8  c0.3-0.8,0.5-1.6,0.5-2.4c0-0.7-0.6-1.3-1.3-1.3S53.8,69.3,53.8,70z" /><path
     style="fill:#e6e6e6;fill-opacity:0.90196079"
     id="path28"
     d="M70,68.8c-0.7,0-1.3,0.6-1.3,1.3c0,10.3-8.4,18.8-18.8,18.8S31.3,80.3,31.3,70c0-0.7-0.6-1.3-1.3-1.3s-1.3,0.6-1.3,1.3  c0,11.7,9.5,21.3,21.3,21.3S71.3,81.7,71.3,70C71.3,69.3,70.7,68.8,70,68.8z" /><path
     style="fill:#e6e6e6;fill-opacity:0.90196079"
     id="path30"
     d="M35,41.3c0.7,0,1.3-0.6,1.3-1.3c0-1.9,0.4-3.7,1.1-5.3c0.3-0.6,0-1.4-0.7-1.6c-0.6-0.3-1.4,0-1.6,0.7  c-0.8,2-1.3,4.1-1.3,6.3C33.8,40.7,34.3,41.3,35,41.3z" /><path
     style="fill:#e6e6e6;fill-opacity:0.90196079"
     id="path32"
     d="M61.3,40c0-6.2-5-11.3-11.3-11.3s-11.3,5-11.3,11.3c0,0.7,0.6,1.3,1.3,1.3s1.3-0.6,1.3-1.3c0-4.8,3.9-8.8,8.8-8.8  s8.8,3.9,8.8,8.8c0,0.7,0.6,1.3,1.3,1.3S61.3,40.7,61.3,40z" /><path
     style="fill:#e6e6e6;fill-opacity:0.90196079"
     id="path34"
     d="M70,41.3c0.7,0,1.3-0.6,1.3-1.3c0-11.7-9.5-21.3-21.3-21.3S28.8,28.3,28.8,40c0,0.7,0.6,1.3,1.3,1.3s1.3-0.6,1.3-1.3  c0-10.3,8.4-18.8,18.8-18.8S68.8,29.7,68.8,40C68.8,40.7,69.3,41.3,70,41.3z" /></svg>