<?xml version="1.0" encoding="UTF-8" standalone="no"?>
<svg
   xmlns:dc="http://purl.org/dc/elements/1.1/"
   xmlns:cc="http://creativecommons.org/ns#"
   xmlns:rdf="http://www.w3.org/1999/02/22-rdf-syntax-ns#"
   xmlns:svg="http://www.w3.org/2000/svg"
   xmlns="http://www.w3.org/2000/svg"
   xmlns:sodipodi="http://sodipodi.sourceforge.net/DTD/sodipodi-0.dtd"
   xmlns:inkscape="http://www.inkscape.org/namespaces/inkscape"
   id="svg36"
   xml:space="preserve"
   enable-background="new 0 0 100 100"
   viewBox="0 0 100 100"
   y="0px"
   x="0px"
   version="1.1"
   sodipodi:docname="fp-light.svg"
   width="100"
   height="100"
   inkscape:version="0.92.2 (5c3e80d, 2017-08-06)"><sodipodi:namedview
     pagecolor="#ffffff"
     bordercolor="#666666"
     borderopacity="1"
     objecttolerance="10"
     gridtolerance="10"
     guidetolerance="10"
     inkscape:pageopacity="0"
     inkscape:pageshadow="2"
     inkscape:window-width="1918"
     inkscape:window-height="1051"
     id="namedview22"
     showgrid="false"
     inkscape:zoom="1.888"
     inkscape:cx="-55.137712"
     inkscape:cy="62.5"
     inkscape:window-x="0"
     inkscape:window-y="26"
     inkscape:window-maximized="0"
     inkscape:current-layer="svg36" /><metadata
     id="metadata42"><rdf:RDF><cc:Work
         rdf:about=""><dc:format>image/svg+xml</dc:format><dc:type
           rdf:resource="http://purl.org/dc/dcmitype/StillImage" /><dc:title /></cc:Work></rdf:RDF></metadata><defs
     id="defs40" /><path
     style="fill:#e6e6e6;fill-opacity:0.90196078"
     id="path2"
     d="M 17.5,93 C 18.9,93 20,91.9 20,90.5 V 38 C 20,21.5 33.5,8 50,8 66.5,8 80,21.5 80,38 v 52.5 c 0,1.4 1.1,2.5 2.5,2.5 1.4,0 2.5,-1.1 2.5,-2.5 V 38 C 85,18.7 69.3,3 50,3 30.7,3 15,18.7 15,38 v 52.5 c 0,1.4 1.1,2.5 2.5,2.5 z"
     inkscape:connector-curvature="0" /><circle
     style="fill:#e6e6e6;fill-opacity:0.90196078"
     id="circle4"
     r="1.3"
     cy="38"
     cx="50" /><path
     style="fill:#e6e6e6;fill-opacity:0.90196078"
     id="path6"
     d="m 50,11.8 c -14.5,0 -26.3,11.8 -26.3,26.3 0,0.7 0.6,1.3 1.3,1.3 0.7,0 1.3,-0.6 1.3,-1.3 0,-13.1 10.7,-23.8 23.8,-23.8 13.1,0 23.7,10.6 23.7,23.7 0,0.7 0.6,1.3 1.3,1.3 0.7,0 1.3,-0.6 1.3,-1.3 C 76.3,23.5 64.5,11.8 50,11.8 Z"
     inkscape:connector-curvature="0" /><path
     style="fill:#e6e6e6;fill-opacity:0.90196078"
     id="path8"
     d="m 50,21.8 c -4.3,0 -8.4,1.7 -11.5,4.8 -0.5,0.5 -0.5,1.3 0,1.8 0.5,0.5 1.3,0.5 1.8,0 2.6,-2.6 6.1,-4 9.7,-4 7.6,0 13.8,6.2 13.8,13.8 0,0.7 0.6,1.3 1.3,1.3 0.7,0 1.3,-0.6 1.3,-1.3 C 66.3,29 59,21.8 50,21.8 Z"
     inkscape:connector-curvature="0" /><path
     style="fill:#e6e6e6;fill-opacity:0.90196078"
     id="path10"
     d="m 50,84.3 c 9,0 16.3,-7.3 16.3,-16.3 0,-0.7 -0.6,-1.3 -1.3,-1.3 -0.7,0 -1.3,0.6 -1.3,1.3 0,7.6 -6.2,13.8 -13.8,13.8 -7.6,0 -13.6,-6.2 -13.6,-13.8 0,-0.7 -0.6,-1.3 -1.3,-1.3 -0.7,0 -1.3,0.6 -1.3,1.3 0.1,9 7.3,16.3 16.3,16.3 z"
     inkscape:connector-curvature="0" /><path
     style="fill:#e6e6e6;fill-opacity:0.90196078"
     id="path12"
     d="m 50,79.3 c 6.2,0 11.3,-5 11.3,-11.3 0,-0.7 -0.6,-1.3 -1.3,-1.3 -0.7,0 -1.3,0.6 -1.3,1.3 0,4.8 -3.9,8.8 -8.8,8.8 -4.9,0 -8.8,-3.9 -8.8,-8.8 0,-0.7 -0.6,-1.3 -1.3,-1.3 -0.7,0 -1.3,0.6 -1.3,1.3 0.3,6.2 5.3,11.3 11.5,11.3 z"
     inkscape:connector-curvature="0" /><path
     style="fill:#e6e6e6;fill-opacity:0.90196078"
     id="path14"
     d="m 53.8,38 c 0,0.7 0.6,1.3 1.3,1.3 0.7,0 1.3,-0.6 1.3,-1.3 0,-3.4 -2.8,-6.3 -6.3,-6.3 -3.5,0 -6.3,2.8 -6.3,6.3 0,0.7 0.6,1.3 1.3,1.3 0.7,0 1.3,-0.6 1.3,-1.3 0,-2.1 1.7,-3.8 3.8,-3.8 2.1,0 3.6,1.7 3.6,3.8 z"
     inkscape:connector-curvature="0" /><path
     style="fill:#e6e6e6;fill-opacity:0.90196078"
     id="path16"
     d="m 50,71.8 c -2.1,0 -3.8,-1.7 -3.8,-3.8 0,-0.7 -0.6,-1.3 -1.3,-1.3 -0.7,0 -1.3,0.6 -1.3,1.3 0,3.4 2.8,6.3 6.3,6.3 0.7,0 1.3,-0.6 1.3,-1.3 0,-0.7 -0.5,-1.2 -1.2,-1.2 z"
     inkscape:connector-curvature="0" /><path
     style="fill:#e6e6e6;fill-opacity:0.90196078"
     id="path18"
     d="m 66.8,84.8 c -4.5,4.5 -10.5,7 -16.8,7 -13.1,0 -23.8,-10.7 -23.8,-23.8 0,-0.7 -0.6,-1.3 -1.3,-1.3 -0.7,0 -1.3,0.6 -1.3,1.3 0,14.5 11.8,26.3 26.3,26.3 7,0 13.6,-2.7 18.6,-7.7 0.5,-0.5 0.5,-1.3 0,-1.8 -0.5,-0.5 -1.2,-0.5 -1.7,0 z"
     inkscape:connector-curvature="0" /><path
     style="fill:#e6e6e6;fill-opacity:0.90196078"
     id="path20"
     d="m 70.7,83.2 c 0.4,0 0.8,-0.2 1,-0.5 0.9,-1.4 1.8,-2.9 2.4,-4.5 0,0 0,0 0,0 1.4,-3.2 2.1,-6.7 2.1,-10.2 0,-0.7 -0.6,-1.3 -1.3,-1.3 -0.7,0 -1.3,0.6 -1.3,1.3 0,3.2 -0.6,6.3 -1.9,9.2 0,0 0,0 0,0 -0.6,1.4 -1.3,2.8 -2.2,4 -0.4,0.6 -0.2,1.3 0.3,1.7 0.4,0.2 0.7,0.3 0.9,0.3 z"
     inkscape:connector-curvature="0" /><path
     style="fill:#e6e6e6;fill-opacity:0.90196078"
     id="path22"
     d="m 59.3,43.7 c -1,-1 -2.6,-1 -3.5,0 L 50,49.5 44.3,43.8 c -1,-1 -2.6,-1 -3.5,0 -1,1 -1,2.6 0,3.5 l 5.7,5.7 -5.7,5.7 c -1,1 -1,2.6 0,3.5 1,1 2.6,1 3.5,0 l 5.7,-5.7 5.7,5.7 c 1,1 2.6,1 3.5,0 1,-1 1,-2.6 0,-3.5 L 53.5,53 59.2,47.3 c 1,-1 1,-2.6 0.1,-3.6 -1,-0.9 0.9,1 0,0 z"
     inkscape:connector-curvature="0" /><circle
     style="fill:#e6e6e6;fill-opacity:0.90196078"
     id="circle24"
     r="1.3"
     cy="68"
     cx="50" /><path
     style="fill:#e6e6e6;fill-opacity:0.90196078"
     id="path26"
     d="m 53.8,68 c 0,0.5 -0.1,1 -0.3,1.5 -0.3,0.6 0,1.4 0.7,1.6 0.2,0.1 0.3,0.1 0.5,0.1 0.5,0 0.9,-0.3 1.2,-0.8 0.3,-0.8 0.5,-1.6 0.5,-2.4 0,-0.7 -0.6,-1.3 -1.3,-1.3 -0.7,0 -1.3,0.6 -1.3,1.3 z"
     inkscape:connector-curvature="0" /><path
     style="fill:#e6e6e6;fill-opacity:0.90196078"
     id="path28"
     d="m 70,66.8 c -0.7,0 -1.3,0.6 -1.3,1.3 0,10.3 -8.4,18.8 -18.8,18.8 -10.4,0 -18.6,-8.6 -18.6,-18.9 0,-0.7 -0.6,-1.3 -1.3,-1.3 -0.7,0 -1.3,0.6 -1.3,1.3 0,11.7 9.5,21.3 21.3,21.3 11.8,0 21.3,-9.6 21.3,-21.3 0,-0.7 -0.6,-1.2 -1.3,-1.2 z"
     inkscape:connector-curvature="0" /><path
     style="fill:#e6e6e6;fill-opacity:0.90196078"
     id="path30"
     d="m 35,39.3 c 0.7,0 1.3,-0.6 1.3,-1.3 0,-1.9 0.4,-3.7 1.1,-5.3 0.3,-0.6 0,-1.4 -0.7,-1.6 -0.6,-0.3 -1.4,0 -1.6,0.7 -0.8,2 -1.3,4.1 -1.3,6.3 0,0.6 0.5,1.2 1.2,1.2 z"
     inkscape:connector-curvature="0" /><path
     style="fill:#e6e6e6;fill-opacity:0.90196078"
     id="path32"
     d="m 61.3,38 c 0,-6.2 -5,-11.3 -11.3,-11.3 -6.3,0 -11.3,5 -11.3,11.3 0,0.7 0.6,1.3 1.3,1.3 0.7,0 1.3,-0.6 1.3,-1.3 0,-4.8 3.9,-8.8 8.8,-8.8 4.9,0 8.8,3.9 8.8,8.8 0,0.7 0.6,1.3 1.3,1.3 0.7,0 1.1,-0.6 1.1,-1.3 z"
     inkscape:connector-curvature="0" /><path
     style="fill:#e6e6e6;fill-opacity:0.90196078"
     id="path34"
     d="m 70,39.3 c 0.7,0 1.3,-0.6 1.3,-1.3 0,-11.7 -9.5,-21.3 -21.3,-21.3 -11.8,0 -21.2,9.6 -21.2,21.3 0,0.7 0.6,1.3 1.3,1.3 0.7,0 1.3,-0.6 1.3,-1.3 0,-10.3 8.4,-18.8 18.8,-18.8 10.4,0 18.6,8.5 18.6,18.8 0,0.7 0.5,1.3 1.2,1.3 z"
     inkscape:connector-curvature="0" /></svg>